<svg width="22" height="22" viewBox="0 0 22 22" fill="none" xmlns="http://www.w3.org/2000/svg">
<path d="M7.49323 10.2218C7.38994 10.3241 7.30797 10.4457 7.25202 10.5797C7.19608 10.7137 7.16728 10.8575 7.16728 11.0027C7.16728 11.1478 7.19608 11.2916 7.25202 11.4256C7.30797 11.5596 7.38994 11.6812 7.49323 11.7835C7.69969 11.9883 7.97897 12.1033 8.27009 12.1033C8.5612 12.1033 8.84049 11.9883 9.04695 11.7835C9.15023 11.6812 9.23221 11.5596 9.28815 11.4256C9.3441 11.2916 9.3729 11.1478 9.3729 11.0027C9.3729 10.8575 9.3441 10.7137 9.28815 10.5797C9.23221 10.4457 9.15023 10.3241 9.04695 10.2218C8.84049 10.017 8.5612 9.90205 8.27009 9.90205C7.97897 9.90205 7.69969 10.017 7.49323 10.2218ZM10.215 12.9492C10.0098 13.1552 9.89456 13.434 9.89456 13.7245C9.89456 14.015 10.0098 14.2938 10.215 14.4998C10.3174 14.6029 10.4393 14.6847 10.5736 14.7405C10.7079 14.7964 10.8519 14.8251 10.9974 14.8251C11.1428 14.8251 11.2869 14.7964 11.4211 14.7405C11.5554 14.6847 11.6773 14.6029 11.7797 14.4998C11.985 14.2938 12.1002 14.015 12.1002 13.7245C12.1002 13.434 11.985 13.1552 11.7797 12.9492C11.6773 12.8461 11.5554 12.7643 11.4211 12.7085C11.2869 12.6526 11.1428 12.6239 10.9974 12.6239C10.8519 12.6239 10.7079 12.6526 10.5736 12.7085C10.4393 12.7643 10.3174 12.8461 10.215 12.9492ZM20.1324 1.95185C18.9337 0.745692 17.3151 0.0473915 15.6135 0.00232472C13.9119 -0.0427421 12.2585 0.568897 10.9974 1.70991C9.7421 0.582219 8.10201 -0.023293 6.41358 0.0176065C4.72515 0.058506 3.11642 0.742716 1.91746 1.92986C0.726286 3.12839 0.0406995 4.73697 0.00175452 6.42463C-0.0371905 8.11229 0.573468 9.75067 1.70809 11.0027C0.859792 11.9491 0.303168 13.1198 0.105011 14.3742C-0.093146 15.6285 0.0755823 16.9133 0.590948 18.0743C1.10631 19.2354 1.94642 20.2233 3.01047 20.9197C4.07451 21.616 5.31728 21.9911 6.58964 22C8.22075 22.0017 9.79333 21.3936 10.9974 20.2954C12.2533 21.4263 13.8957 22.0338 15.5867 21.9929C17.2778 21.952 18.8888 21.2658 20.0883 20.0755C21.2779 18.8755 21.9615 17.2661 21.9984 15.5785C22.0353 13.8908 21.4227 12.2533 20.2866 11.0027C21.4227 9.75206 22.0353 8.11447 21.9984 6.42682C21.9615 4.73918 21.2779 3.12982 20.0883 1.92986L20.1324 1.95185ZM18.5236 3.49148C19.2899 4.27821 19.7339 5.32236 19.7686 6.41902C19.8032 7.51568 19.426 8.58568 18.7109 9.41904L12.5841 3.30452C13.4265 2.607 14.4953 2.24098 15.5893 2.27541C16.6833 2.30985 17.7269 2.74237 18.5236 3.49148ZM3.47118 18.5138C2.70486 17.7271 2.2608 16.683 2.22614 15.5863C2.19149 14.4896 2.56873 13.4196 3.28385 12.5863L9.45467 18.7448C8.60299 19.4464 7.52234 19.8107 6.41879 19.7681C5.31524 19.7255 4.26601 19.279 3.47118 18.5138ZM18.5236 18.5138C17.6869 19.3124 16.5738 19.7581 15.4161 19.7581C14.2584 19.7581 13.1453 19.3124 12.3087 18.5138L3.49322 9.71597C2.67227 8.89178 2.21148 7.77686 2.21148 6.61472C2.21148 5.45259 2.67227 4.33767 3.49322 3.51347C4.31906 2.69417 5.4362 2.23429 6.60066 2.23429C7.76512 2.23429 8.88227 2.69417 9.70811 3.51347L18.5236 12.3113C19.3445 13.1355 19.8053 14.2505 19.8053 15.4126C19.8053 16.5747 19.3445 17.6896 18.5236 18.5138ZM12.9478 10.2218C12.8445 10.3241 12.7625 10.4457 12.7066 10.5797C12.6506 10.7137 12.6218 10.8575 12.6218 11.0027C12.6218 11.1478 12.6506 11.2916 12.7066 11.4256C12.7625 11.5596 12.8445 11.6812 12.9478 11.7835C13.1542 11.9883 13.4335 12.1033 13.7246 12.1033C14.0158 12.1033 14.295 11.9883 14.5015 11.7835C14.6048 11.6812 14.6868 11.5596 14.7427 11.4256C14.7987 11.2916 14.8275 11.1478 14.8275 11.0027C14.8275 10.8575 14.7987 10.7137 14.7427 10.5797C14.6868 10.4457 14.6048 10.3241 14.5015 10.2218C14.295 10.017 14.0158 9.90205 13.7246 9.90205C13.4335 9.90205 13.1542 10.017 12.9478 10.2218ZM10.215 7.50551C10.0098 7.71155 9.89456 7.99028 9.89456 8.28082C9.89456 8.57135 10.0098 8.85008 10.215 9.05613C10.3174 9.15921 10.4393 9.24102 10.5736 9.29685C10.7079 9.35268 10.8519 9.38143 10.9974 9.38143C11.1428 9.38143 11.2869 9.35268 11.4211 9.29685C11.5554 9.24102 11.6773 9.15921 11.7797 9.05613C11.985 8.85008 12.1002 8.57135 12.1002 8.28082C12.1002 7.99028 11.985 7.71155 11.7797 7.50551C11.6773 7.40243 11.5554 7.32062 11.4211 7.26478C11.2869 7.20895 11.1428 7.18021 10.9974 7.18021C10.8519 7.18021 10.7079 7.20895 10.5736 7.26478C10.4393 7.32062 10.3174 7.40243 10.215 7.50551Z" fill="#306EF6" fill-opacity="0.2"/>
</svg>
