<svg width="24" height="24" viewBox="0 0 24 24" fill="none" xmlns="http://www.w3.org/2000/svg">
<path d="M23.6144 0.354855C23.503 0.242413 23.3705 0.153166 23.2246 0.0922615C23.0786 0.0313568 22.922 0 22.7639 0C22.6058 0 22.4492 0.0313568 22.3032 0.0922615C22.1573 0.153166 22.0248 0.242413 21.9134 0.354855L19.374 2.89811L18.5235 2.05836C18.2991 1.83492 17.9955 1.70951 17.6791 1.70951C17.3626 1.70951 17.059 1.83492 16.8346 2.05836L15.1456 3.74987L14.2952 2.89811C14.1838 2.78567 14.0513 2.69643 13.9054 2.63552C13.7594 2.57462 13.6028 2.54326 13.4447 2.54326C13.2866 2.54326 13.13 2.57462 12.984 2.63552C12.8381 2.69643 12.7056 2.78567 12.5942 2.89811L3.28699 12.2314L2.40059 11.3916C2.16809 11.2289 1.88548 11.1541 1.60307 11.1805C1.32065 11.2069 1.05675 11.3328 0.858353 11.5358C0.659954 11.7389 0.539927 12.0058 0.519639 12.2892C0.499351 12.5725 0.580119 12.8539 0.747563 13.0832L4.97595 17.3299L2.90368 19.4173L2.05321 18.5536C1.82765 18.3277 1.52173 18.2008 1.20274 18.2008C0.883756 18.2008 0.577834 18.3277 0.352275 18.5536C0.126717 18.7795 2.37664e-09 19.0858 0 19.4053C-2.37664e-09 19.7248 0.126717 20.0312 0.352275 20.2571L3.74217 23.6521C3.8541 23.7633 3.98684 23.8512 4.13278 23.9109C4.27872 23.9706 4.43499 24.0009 4.59264 24C4.75028 24.0009 4.90656 23.9706 5.0525 23.9109C5.19844 23.8512 5.33118 23.7633 5.44311 23.6521C5.55538 23.5406 5.64449 23.4079 5.7053 23.2617C5.76612 23.1155 5.79743 22.9587 5.79743 22.8003C5.79743 22.642 5.76612 22.4852 5.7053 22.339C5.64449 22.1928 5.55538 22.0601 5.44311 21.9486L4.59264 21.1088L6.67688 19.0214L10.9053 23.2562C11.0162 23.3695 11.1485 23.4597 11.2945 23.5215C11.4405 23.5833 11.5973 23.6154 11.7557 23.6161C11.9926 23.6151 12.2239 23.5438 12.4203 23.4111C12.6168 23.2785 12.7695 23.0905 12.8593 22.8709C12.949 22.6514 12.9717 22.4101 12.9246 22.1775C12.8774 21.945 12.7624 21.7318 12.5942 21.5647L11.7557 20.7129L21.0749 11.3916C21.1872 11.2801 21.2763 11.1474 21.3371 11.0013C21.398 10.8551 21.4293 10.6983 21.4293 10.5399C21.4293 10.3815 21.398 10.2247 21.3371 10.0785C21.2763 9.93235 21.1872 9.79966 21.0749 9.68814L20.2245 8.83639L21.9134 7.20486C22.1365 6.98009 22.2618 6.67604 22.2618 6.35911C22.2618 6.04218 22.1365 5.73812 21.9134 5.51335L21.0749 4.6616L23.6144 2.11834C23.736 2.006 23.833 1.86966 23.8994 1.71791C23.9657 1.56615 24 1.40227 24 1.2366C24 1.07092 23.9657 0.907046 23.8994 0.755291C23.833 0.603536 23.736 0.467193 23.6144 0.354855ZM6.67688 15.6024L4.97595 13.9349L6.66491 12.2314L8.3898 13.9349L6.67688 15.6024ZM10.0548 18.9974L8.3898 17.3299L10.0548 15.6024L11.7557 17.3059L10.0548 18.9974ZM13.4447 15.6024L8.3898 10.5399L13.4686 5.45337L14.3191 6.29313L18.5475 10.5399L13.4447 15.6024ZM18.5235 7.20486L16.8346 5.45337L17.6851 4.60162L18.5235 5.44138L19.362 6.28113L18.5235 7.20486Z" fill="#306EF6" fill-opacity="0.2"/>
</svg>
