<svg width="27" height="22" viewBox="0 0 27 22" fill="none" xmlns="http://www.w3.org/2000/svg">
<path d="M25.65 8.79979H22.275C22.0964 8.80056 21.9197 8.83792 21.7552 8.90972C21.5906 8.98152 21.4415 9.08633 21.3165 9.21808L19.6425 11.0167L15.8625 6.56893C15.7362 6.42963 15.5836 6.31858 15.4141 6.24266C15.2446 6.16674 15.0618 6.12757 14.877 6.12757C14.6922 6.12757 14.5094 6.16674 14.3399 6.24266C14.1704 6.31858 14.0178 6.42963 13.8915 6.56893L11.5965 8.93922H9.45001C9.09197 8.93922 8.74859 9.08612 8.49542 9.3476C8.24224 9.60908 8.10001 9.96372 8.10001 10.3335C8.10001 10.7033 8.24224 11.0579 8.49542 11.3194C8.74859 11.5809 9.09197 11.7278 9.45001 11.7278H12.15C12.3277 11.7289 12.5038 11.6937 12.6683 11.6243C12.8328 11.5549 12.9824 11.4527 13.1085 11.3234L14.85 9.45511L18.63 13.9029C18.7519 14.0464 18.9011 14.1626 19.0683 14.2441C19.2356 14.3257 19.4172 14.3709 19.602 14.3769C19.7797 14.378 19.9558 14.3428 20.1203 14.2734C20.2848 14.2041 20.4344 14.1018 20.5605 13.9726L22.8555 11.5884H25.65C26.008 11.5884 26.3514 11.4415 26.6046 11.18C26.8578 10.9185 27 10.5639 27 10.1941C27 9.82429 26.8578 9.46965 26.6046 9.20817C26.3514 8.94669 26.008 8.79979 25.65 8.79979ZM15.6735 16.1895L13.1085 18.8387C12.983 18.9693 12.8337 19.0731 12.6692 19.1438C12.5047 19.2146 12.3282 19.2511 12.15 19.2511C11.9718 19.2511 11.7953 19.2146 11.6308 19.1438C11.4663 19.0731 11.317 18.9693 11.1915 18.8387L4.15801 11.5744C3.69512 11.0966 3.32792 10.5293 3.0774 9.90491C2.82687 9.28051 2.69792 8.61123 2.69792 7.93533C2.69792 7.25944 2.82687 6.59016 3.0774 5.96575C3.32792 5.34134 3.69512 4.77404 4.15801 4.29625C5.09176 3.33498 6.35638 2.79522 7.67476 2.79522C8.99314 2.79522 10.2578 3.33498 11.1915 4.29625C11.317 4.42693 11.4663 4.53066 11.6308 4.60144C11.7953 4.67223 11.9718 4.70867 12.15 4.70867C12.3282 4.70867 12.5047 4.67223 12.6692 4.60144C12.8337 4.53066 12.983 4.42693 13.1085 4.29625C14.0571 3.36447 15.3161 2.84486 16.6253 2.84486C17.9344 2.84486 19.1934 3.36447 20.142 4.29625C20.4428 4.611 20.7057 4.96211 20.925 5.34196C21.1216 5.62111 21.4114 5.81504 21.7384 5.88622C22.0655 5.95739 22.4064 5.90075 22.6953 5.72726C22.9843 5.55377 23.2006 5.27577 23.3025 4.94703C23.4044 4.6183 23.3846 4.26221 23.247 3.94767C22.9133 3.37539 22.5145 2.84644 22.059 2.37213C20.7778 1.03341 19.0769 0.209737 17.2611 0.0487704C15.4453 -0.112196 13.6333 0.400067 12.15 1.49373C11.0037 0.640837 9.65147 0.131619 8.24262 0.0222716C6.83378 -0.0870757 5.42308 0.207699 4.16619 0.874066C2.90931 1.54043 1.85511 2.55248 1.11994 3.79853C0.384763 5.04458 -0.00280061 6.47617 1.52353e-05 7.93533C-0.000389199 8.97281 0.19869 10 0.585703 10.9574C0.972715 11.9148 1.53996 12.7833 2.25451 13.5125L9.28801 20.7767C10.0474 21.56 11.0768 22 12.15 22C13.2233 22 14.2526 21.56 15.012 20.7767L17.55 18.1555C17.8014 17.8942 17.9426 17.5408 17.9426 17.1725C17.9426 16.8041 17.8014 16.4507 17.55 16.1895C17.2983 15.9382 16.9619 15.7977 16.6118 15.7977C16.2617 15.7977 15.9252 15.9382 15.6735 16.1895Z" fill="#306EF6" fill-opacity="0.2"/>
</svg>
