<svg width="20" height="25" viewBox="0 0 20 25" fill="none" xmlns="http://www.w3.org/2000/svg">
<path d="M18.8889 22.7284H13.1286C13.204 22.5105 13.2572 22.2853 13.2875 22.0563C14.9323 21.3798 16.3431 20.2186 17.3405 18.7203C18.338 17.222 18.8769 15.4543 18.8889 13.642C18.8921 11.3572 18.0474 9.15617 16.5251 7.48317L17.2331 6.75901C17.3551 6.6346 17.4469 6.48263 17.5011 6.31535L18.2878 3.90511C18.3531 3.70503 18.3627 3.49029 18.3153 3.28497C18.268 3.07965 18.1656 2.89187 18.0197 2.74269L15.6619 0.333006C15.5161 0.18367 15.3324 0.0788654 15.1315 0.0303699C14.9306 -0.0181256 14.7205 -0.00838951 14.5247 0.0584841L12.168 0.862083C12.0044 0.917792 11.8557 1.0118 11.7339 1.1366L4.66471 8.36344C4.56151 8.46886 4.47964 8.59403 4.42378 8.73181C4.36792 8.86958 4.33917 9.01726 4.33916 9.1664C4.33916 9.31554 4.3679 9.46321 4.42375 9.60099C4.47959 9.73877 4.56145 9.86395 4.66464 9.96938L3.09137 11.5773C2.98817 11.6827 2.9063 11.8079 2.85045 11.9457C2.79459 12.0835 2.76584 12.2312 2.76584 12.3803C2.76584 12.5295 2.79459 12.6772 2.85045 12.8149C2.9063 12.9527 2.98817 13.0779 3.09137 13.1834L5.44922 15.5925C5.55237 15.698 5.67484 15.7817 5.80963 15.8388C5.94443 15.8959 6.0889 15.9252 6.23481 15.9252C6.38072 15.9252 6.5252 15.8959 6.65999 15.8388C6.79478 15.7817 6.91725 15.698 7.0204 15.5925L8.59158 13.9864L8.5938 13.9887C8.69695 14.0942 8.81941 14.1778 8.95421 14.2349C9.089 14.292 9.23348 14.3214 9.37939 14.3214C9.5253 14.3214 9.66978 14.292 9.80457 14.2349C9.93936 14.1778 10.0618 14.0942 10.165 13.9887L14.9533 9.09103C16.0581 10.3375 16.6689 11.96 16.6667 13.642C16.6598 14.9353 16.2958 16.2003 15.6167 17.2915C14.9376 18.3827 13.971 19.2558 12.828 19.8103C12.5295 19.3081 12.1081 18.8942 11.6053 18.6092C11.1025 18.3243 10.5358 18.1782 9.96101 18.1854C9.38619 18.1927 8.82315 18.3529 8.3274 18.6504C7.83165 18.9479 7.42033 19.3724 7.13399 19.8819C6.70157 19.7112 6.28538 19.5003 5.89066 19.2519C6.11426 19.1817 6.31012 19.0404 6.44969 18.8486C6.58927 18.6567 6.66529 18.4243 6.66667 18.1852C6.66671 18.036 6.63799 17.8883 6.58217 17.7505C6.52634 17.6127 6.4445 17.4874 6.34131 17.382C6.23813 17.2765 6.11563 17.1928 5.9808 17.1358C5.84598 17.0787 5.70148 17.0494 5.55556 17.0494H1.11111C0.816426 17.0494 0.533811 17.1691 0.325437 17.3821C0.117063 17.5951 0 17.884 0 18.1852C0 18.4864 0.117063 18.7753 0.325437 18.9883C0.533811 19.2013 0.816426 19.321 1.11111 19.321H2.59047C3.70836 20.6038 5.13039 21.571 6.71977 22.1294C6.75219 22.3334 6.80297 22.5339 6.87148 22.7284H1.11111C0.816426 22.7284 0.533811 22.8481 0.325437 23.0611C0.117063 23.2741 0 23.563 0 23.8642C0 24.1654 0.117063 24.4543 0.325437 24.6673C0.533811 24.8803 0.816426 25 1.11111 25H18.8889C19.1836 25 19.4662 24.8803 19.6746 24.6673C19.8829 24.4543 20 24.1654 20 23.8642C20 23.563 19.8829 23.2741 19.6746 23.0611C19.4662 22.8481 19.1836 22.7284 18.8889 22.7284ZM6.23481 13.1834L5.44814 12.3803L6.23481 11.5768L7.02037 12.3803L6.23481 13.1834ZM15.4763 5.34259L9.37934 11.579L7.02149 9.16655L13.1196 2.93242L14.5768 2.43551L15.9625 3.85249L15.4763 5.34259ZM10 22.7284C9.78024 22.7284 9.56542 22.6618 9.3827 22.537C9.19998 22.4122 9.05756 22.2348 8.97347 22.0272C8.88937 21.8197 8.86737 21.5913 8.91024 21.371C8.95311 21.1507 9.05893 20.9483 9.21433 20.7894C9.36972 20.6306 9.5677 20.5224 9.78323 20.4786C9.99877 20.4348 10.2222 20.4573 10.4252 20.5432C10.6282 20.6292 10.8018 20.7748 10.9239 20.9616C11.0459 21.1483 11.1111 21.3679 11.1111 21.5926C11.1108 21.8937 10.9937 22.1824 10.7853 22.3954C10.577 22.6083 10.2946 22.7281 10 22.7284Z" fill="#306EF6" fill-opacity="0.2"/>
</svg>
